<svg xmlns="http://www.w3.org/2000/svg" version="1.1" xmlns:xlink="http://www.w3.org/1999/xlink" xmlns:svgjs="http://svgjs.dev/svgjs" width="512" height="512"><svg width="512" height="512" viewBox="0 0 512 512" fill="none" xmlns="http://www.w3.org/2000/svg">
<path d="M131.608 279.03L178.601 231.948C178.601 231.948 178.601 231.859 178.601 231.77C178.601 209.834 160.945 192 139.188 192C117.43 192 100.488 209.834 100.488 231.77C100.488 253.705 115.825 266.546 134.818 269.31L103.698 300.43V319.602H178.511V279.03H131.519H131.608ZM115.023 206.802C121.443 200.204 130.003 196.548 139.277 196.548C157.646 196.548 172.715 210.993 173.964 229.273H105.214C105.749 220.713 109.227 212.777 115.023 206.802ZM115.647 255.578C109.316 249.871 105.66 242.202 105.125 233.91H170.219L139.009 265.208C130.182 264.762 121.978 261.374 115.647 255.667M174.053 315.054H108.335V302.303L127.061 283.577H174.053V315.054Z" fill="#12120D"></path>
<path d="M49.6613 193.248L9 233.909H49.6613V319.691H89.8768V193.248H49.6613ZM20.057 229.273L49.6613 199.668V229.273H20.057ZM85.3292 315.054H54.209V197.796H85.3292V315.054Z" fill="#12120D"></path>
<path d="M266.433 283.399C266.433 262.8 250.561 247.82 228.536 247.285V233.82H263.936V193.248H188.231V269.577H223.899V319.601H228.446C251.185 319.066 266.344 304.71 266.344 283.399H266.433ZM192.779 197.796H259.388V229.273H192.779V197.796ZM223.988 264.94H192.868V233.82H223.988V264.94ZM228.536 315.054C228.536 314.965 228.536 251.832 228.536 251.832C248.242 252.367 261.885 265.208 261.885 283.399C261.885 301.589 248.866 314.519 228.536 314.965V315.054Z" fill="#12120D"></path>
<path d="M332.151 193.248H327.871V200.203H332.151V193.248Z" fill="#12120D"></path>
<path d="M307.362 218.394C307.362 215.63 305.043 213.222 302.19 213.222H295.859C295.413 213.222 295.324 213.4 295.324 213.757V224.101C295.324 224.547 295.502 224.636 295.859 224.636H302.19C305.043 224.636 307.362 222.317 307.362 219.464V218.305V218.394ZM307.362 202.968C307.362 200.114 305.043 197.796 302.19 197.796H295.859C295.413 197.796 295.324 197.974 295.324 198.331V208.05C295.324 208.407 295.502 208.585 295.859 208.585H302.19C305.043 208.585 307.362 206.267 307.362 203.413V202.878V202.968ZM302.19 229.273H290.776C290.419 229.273 290.241 229.094 290.241 228.738V193.783C290.241 193.337 290.419 193.248 290.776 193.248H302.19C308.521 193.248 312.533 197.261 312.533 203.592V204.127C312.533 205.464 311.998 207.069 310.75 208.764C309.769 210.101 308.61 210.636 308.61 211.082C308.61 211.528 309.769 212.063 310.75 213.579C311.909 215.362 312.533 216.967 312.533 218.305V219.196C312.533 225.527 308.61 229.362 302.19 229.362" fill="#12120D"></path>
<path d="M330.813 229.808H329.119C322.877 229.808 318.775 225.884 318.775 220.088V193.783C318.775 193.337 318.953 193.248 319.31 193.248H323.323C323.679 193.248 323.858 193.426 323.858 193.783V220.088C323.858 222.942 326.176 225.26 329.03 225.26H330.724C333.577 225.26 335.896 222.942 335.896 220.088V193.783C335.896 193.337 336.074 193.248 336.431 193.248H340.443C340.8 193.248 340.978 193.426 340.978 193.783V220.088C340.978 225.884 336.877 229.808 330.635 229.808" fill="#12120D"></path>
<path d="M370.761 229.273H367.105L366.57 229.005L352.927 203.324L353.284 228.738C353.284 229.183 353.106 229.273 352.749 229.273H348.736C348.38 229.273 348.201 229.094 348.201 228.738V193.783C348.201 193.337 348.38 193.248 348.736 193.248H352.392L352.927 193.516L366.481 219.196L366.213 193.872C366.213 193.426 366.392 193.337 366.748 193.337H370.761C371.207 193.337 371.296 193.516 371.296 193.872V228.827C371.296 229.273 371.118 229.362 370.761 229.362" fill="#12120D"></path>
<path d="M396.175 202.968C396.175 200.114 393.856 197.796 391.003 197.796H384.672C384.315 197.796 384.137 197.974 384.137 198.331V224.101C384.137 224.547 384.315 224.636 384.672 224.636H391.003C393.856 224.636 396.175 222.317 396.175 219.464V202.878V202.968ZM391.003 229.273H379.589C379.143 229.273 379.054 229.094 379.054 228.738V193.783C379.054 193.337 379.232 193.248 379.589 193.248H391.003C397.334 193.248 401.346 197.261 401.346 203.592V219.018C401.346 225.349 397.423 229.362 391.003 229.362" fill="#12120D"></path>
<path d="M430.951 229.273H427.295L426.76 229.005L413.117 203.324L413.473 228.738C413.473 229.183 413.295 229.273 412.938 229.273H408.926C408.569 229.273 408.391 229.094 408.391 228.738V193.783C408.391 193.337 408.569 193.248 408.926 193.248H412.582L413.117 193.516L426.67 219.196L426.403 193.872C426.403 193.426 426.581 193.337 426.938 193.337H430.951C431.307 193.337 431.486 193.516 431.486 193.872V228.827C431.486 229.273 431.307 229.362 430.951 229.362" fill="#12120D"></path>
<path d="M459.217 229.273H439.778C439.333 229.273 439.243 229.094 439.243 228.738V193.783C439.243 193.337 439.422 193.248 439.778 193.248H459.217C459.574 193.248 459.752 193.426 459.752 193.783V197.172C459.752 197.617 459.574 197.707 459.217 197.707H444.861C444.415 197.707 444.326 197.885 444.326 198.242V207.961C444.326 208.318 444.504 208.496 444.861 208.496H456.631C456.988 208.496 457.166 208.674 457.166 209.031V212.509C457.166 212.865 456.988 213.044 456.631 213.044H444.861C444.415 213.044 444.326 213.222 444.326 213.579V223.922C444.326 224.368 444.504 224.457 444.861 224.457H459.217C459.574 224.457 459.752 224.636 459.752 224.992V228.381C459.752 228.827 459.574 228.916 459.217 228.916" fill="#12120D"></path>
<path d="M483.472 202.968C483.472 200.114 481.153 197.796 478.3 197.796H471.969C471.612 197.796 471.434 197.974 471.434 198.331V208.05C471.434 208.407 471.612 208.585 471.969 208.585H478.3C481.153 208.585 483.472 206.267 483.472 203.413V202.878V202.968ZM489 228.827C489 229.094 488.733 229.273 488.465 229.273H484.096L483.561 228.916L478.211 213.668L477.765 213.311H472.058C471.701 213.311 471.523 213.49 471.523 213.846V228.738C471.523 229.094 471.344 229.273 470.988 229.273H466.975C466.529 229.273 466.44 229.094 466.44 228.738V193.783C466.44 193.337 466.619 193.248 466.975 193.248H478.389C484.72 193.248 488.733 197.261 488.733 203.592V204.127C488.733 206.088 487.663 208.585 485.433 210.636C484.363 211.617 483.382 211.795 483.382 212.33C483.382 212.865 483.382 212.42 483.382 212.509L488.911 228.559C488.911 228.648 488.911 228.738 488.911 228.827" fill="#12120D"></path>
<path d="M315.654 273.946C315.654 274.214 315.387 274.392 315.119 274.392H310.037L309.591 274.125L299.247 257.45C298.177 258.698 296.84 260.393 295.324 262.354V273.768C295.324 274.125 295.145 274.303 294.789 274.303H290.776C290.419 274.303 290.241 274.125 290.241 273.768V238.814C290.241 238.457 290.419 238.279 290.776 238.279H294.789C295.145 238.279 295.324 238.457 295.324 238.814V253.883C295.324 254.24 295.591 254.597 295.859 254.597C296.126 254.597 296.215 254.507 296.394 254.24L308.432 238.457L308.877 238.189H313.603C314.049 238.189 314.228 238.368 314.228 238.635C314.228 238.903 314.228 238.903 314.049 239.081L303.081 252.635C302.992 252.724 302.992 252.902 302.992 252.992C302.992 253.081 302.992 253.17 302.992 253.259L315.565 273.411C315.654 273.59 315.654 273.679 315.654 273.768" fill="#12120D"></path>
<path d="M331.883 275.017H330.189C323.947 275.017 319.845 271.094 319.845 265.298V238.993C319.845 238.636 320.024 238.458 320.38 238.458H324.393C324.75 238.458 324.928 238.636 324.928 238.993V265.298C324.928 268.151 327.246 270.469 330.1 270.469H331.794C334.647 270.469 336.966 268.151 336.966 265.298V238.993C336.966 238.636 337.144 238.458 337.501 238.458H341.513C341.87 238.458 342.048 238.636 342.048 238.993V265.298C342.048 271.183 337.947 275.017 331.705 275.017" fill="#12120D"></path>
<path d="M371.831 274.393H368.175L367.64 274.125L353.997 248.444L354.354 273.858C354.354 274.214 354.176 274.393 353.819 274.393H349.806C349.36 274.393 349.271 274.214 349.271 273.858V238.903C349.271 238.547 349.45 238.368 349.806 238.368H353.462L353.997 238.636L367.551 264.317L367.283 238.992C367.283 238.636 367.462 238.457 367.819 238.457H371.831C372.188 238.457 372.366 238.636 372.366 238.992V273.947C372.366 274.304 372.188 274.482 371.831 274.482" fill="#12120D"></path>
<path d="M384.226 247.552C384.226 250.673 386.99 251.743 391.627 253.884C397.69 256.648 400.544 259.68 400.544 265.297C400.544 270.915 396.442 275.017 390.2 275.017H387.793C385.028 275.017 382.799 274.303 381.551 273.323C379.321 271.628 378.251 270.023 378.251 269.132C378.251 268.24 378.341 268.864 378.608 268.686L382.175 266.813C382.264 266.813 382.442 266.724 382.442 266.724C382.71 266.724 382.799 266.902 382.977 267.17C384.315 268.953 385.118 270.469 387.703 270.469H390.111C392.875 270.469 395.283 268.151 395.283 265.297C395.283 262.444 392.786 260.571 388.328 258.52C382.175 255.667 378.876 253.349 378.876 247.552C378.876 241.756 382.977 237.833 389.219 237.833H390.111C395.729 237.833 399.652 241.4 399.652 243.629C399.652 245.858 399.563 243.986 399.295 244.075L395.64 245.947C395.55 245.947 395.372 245.947 395.372 245.947C395.105 245.947 395.105 245.858 394.926 245.591C393.589 243.807 392.608 242.381 390.2 242.381H389.308C386.544 242.381 384.137 244.61 384.137 247.552" fill="#12120D"></path>
<path d="M424.352 242.916H417.754C417.397 242.916 417.219 243.094 417.219 243.451V273.768C417.219 274.125 417.04 274.304 416.684 274.304H412.671C412.314 274.304 412.136 274.125 412.136 273.768V243.451C412.136 243.005 411.958 242.916 411.601 242.916H405.002C404.646 242.916 404.467 242.737 404.467 242.381V238.903C404.467 238.547 404.646 238.368 405.002 238.368H424.441C424.798 238.368 424.976 238.547 424.976 238.903V242.381C424.976 242.737 424.798 242.916 424.441 242.916" fill="#12120D"></path>
<path d="M305.132 319.156C305.043 319.423 304.865 319.602 304.597 319.602H301.476C301.209 319.602 301.03 319.513 300.941 319.156L290.33 284.201C290.33 284.112 290.33 284.023 290.33 283.934C290.33 283.577 290.598 283.399 290.954 283.399H295.234C295.591 283.399 295.769 283.488 295.769 283.845L303.17 310.061L310.393 283.845C310.393 283.577 310.661 283.399 310.928 283.399H315.208C315.565 283.399 315.833 283.577 315.833 283.934C315.833 284.291 315.833 284.112 315.833 284.201L305.221 319.156H305.132Z" fill="#12120D"></path>
<path d="M341.157 319.602H321.718C321.272 319.602 321.183 319.423 321.183 319.067V284.112C321.183 283.666 321.361 283.577 321.718 283.577H341.157C341.514 283.577 341.692 283.755 341.692 284.112V287.59C341.692 287.946 341.514 288.125 341.157 288.125H326.801C326.444 288.125 326.266 288.303 326.266 288.66V298.379C326.266 298.825 326.444 298.914 326.801 298.914H338.571C338.928 298.914 339.106 299.093 339.106 299.449V302.838C339.106 303.284 338.928 303.373 338.571 303.373H326.801C326.444 303.373 326.266 303.551 326.266 303.908V314.252C326.266 314.608 326.444 314.787 326.801 314.787H341.157C341.514 314.787 341.692 314.965 341.692 315.322V318.799C341.692 319.156 341.514 319.334 341.157 319.334" fill="#12120D"></path>
<path d="M365.233 293.297C365.233 290.444 362.914 288.125 360.061 288.125H353.73C353.373 288.125 353.195 288.303 353.195 288.66V298.38C353.195 298.825 353.373 298.915 353.73 298.915H360.061C362.914 298.915 365.233 296.596 365.233 293.743V293.208V293.297ZM370.761 319.156C370.761 319.424 370.494 319.602 370.226 319.602H365.857L365.322 319.156L359.972 303.908L359.526 303.551H353.819C353.462 303.551 353.284 303.73 353.284 304.086V318.978C353.284 319.334 353.106 319.513 352.749 319.513H348.736C348.29 319.513 348.201 319.334 348.201 318.978V284.023C348.201 283.577 348.38 283.488 348.736 283.488H360.15C366.481 283.488 370.494 287.501 370.494 293.832V294.367C370.494 296.329 369.424 298.825 367.194 300.876C366.124 301.857 365.143 302.036 365.143 302.571C365.143 303.106 365.143 302.66 365.143 302.749L370.672 318.799C370.672 318.889 370.672 318.978 370.672 319.067" fill="#12120D"></path>
<path d="M396.977 319.602H377.538C377.181 319.602 377.003 319.423 377.003 319.067V284.112C377.003 283.666 377.181 283.577 377.538 283.577H396.977C397.334 283.577 397.512 283.755 397.512 284.112V287.59C397.512 287.946 397.334 288.125 396.977 288.125H382.71C382.264 288.125 382.175 288.303 382.175 288.66V298.379C382.175 298.825 382.353 298.914 382.71 298.914H394.48C394.837 298.914 395.015 299.093 395.015 299.449V302.838C395.015 303.284 394.837 303.373 394.48 303.373H382.71C382.264 303.373 382.175 303.551 382.175 303.908V314.252C382.175 314.608 382.353 314.787 382.71 314.787H396.977C397.334 314.787 397.512 314.965 397.512 315.322V318.799C397.512 319.156 397.334 319.334 396.977 319.334" fill="#12120D"></path>
<path d="M408.569 319.602H404.557C404.111 319.602 404.021 319.423 404.021 319.067V284.112C404.021 283.666 404.2 283.577 404.557 283.577H408.569C408.926 283.577 409.104 283.755 409.104 284.112V319.067C409.104 319.423 408.926 319.602 408.569 319.602Z" fill="#12120D"></path>
<path d="M439.154 319.602H435.498L434.963 319.334L421.32 293.653L421.677 319.067C421.677 319.423 421.499 319.602 421.142 319.602H417.129C416.773 319.602 416.594 319.423 416.594 319.067V284.112C416.594 283.666 416.773 283.577 417.129 283.577H420.785L421.32 283.845L434.874 309.526L434.606 284.201C434.606 283.755 434.785 283.666 435.142 283.666H439.154C439.6 283.666 439.689 283.845 439.689 284.201V319.156C439.689 319.513 439.511 319.691 439.154 319.691" fill="#12120D"></path>
</svg><style>@media (prefers-color-scheme: light) { :root { filter: none; } }
@media (prefers-color-scheme: dark) { :root { filter: invert(100%); } }
</style></svg>