<svg xmlns="http://www.w3.org/2000/svg" version="1.1" xmlns:xlink="http://www.w3.org/1999/xlink" xmlns:svgjs="http://svgjs.dev/svgjs" width="512" height="512"><svg width="512" height="512" viewBox="0 0 512 512" fill="none" xmlns="http://www.w3.org/2000/svg">
<path d="M239.61 299.273L327.232 211.486C327.232 211.486 327.232 211.32 327.232 211.154C327.232 170.253 294.311 137 253.744 137C213.175 137 181.585 170.253 181.585 211.154C181.585 252.053 210.182 275.996 245.596 281.149L187.57 339.175V374.922H327.064V299.273H239.444H239.61ZM208.687 164.599C220.657 152.297 236.618 145.48 253.91 145.48C288.16 145.48 316.257 172.414 318.586 206.498H190.397C191.395 190.537 197.88 175.74 208.687 164.599ZM209.85 255.545C198.046 244.904 191.229 230.605 190.231 215.144H311.603L253.41 273.501C236.952 272.669 221.655 266.352 209.85 255.711M318.752 366.442H196.216V342.667L231.132 307.751H318.752V366.442Z" fill="#12120D"></path>
<path d="M86.8156 139.327L11 215.142H86.8156V375.088H161.8V139.327H86.8156ZM31.6165 206.498L86.8156 151.297V206.498H31.6165ZM153.321 366.442H95.2951V147.807H153.321V366.442Z" fill="#12120D"></path>
<path d="M491 307.419C491 269.011 461.406 241.08 420.339 240.082V214.976H486.344V139.327H345.187V281.647H411.693V374.92H420.171C462.569 373.922 490.834 347.155 490.834 307.419H491ZM353.667 147.807H477.864V206.498H353.667V147.807ZM411.858 273.001H353.833V214.976H411.858V273.001ZM420.339 366.442C420.339 366.276 420.339 248.56 420.339 248.56C457.082 249.558 482.52 273.501 482.52 307.419C482.52 341.335 458.245 365.444 420.339 366.276V366.442Z" fill="#12120D"></path>
</svg><style>@media (prefers-color-scheme: light) { :root { filter: none; } }
@media (prefers-color-scheme: dark) { :root { filter: invert(100%); } }
</style></svg>